<?xml version="1.0" encoding="UTF-8" standalone="no"?>
<svg
   xmlns:dc="http://purl.org/dc/elements/1.1/"
   xmlns:cc="http://creativecommons.org/ns#"
   xmlns:rdf="http://www.w3.org/1999/02/22-rdf-syntax-ns#"
   xmlns:svg="http://www.w3.org/2000/svg"
   xmlns="http://www.w3.org/2000/svg"
   xmlns:sodipodi="http://sodipodi.sourceforge.net/DTD/sodipodi-0.dtd"
   xmlns:inkscape="http://www.inkscape.org/namespaces/inkscape"
   width="153.61719pt"
   height="52.265625pt"
   viewBox="0 0 153.61719 52.265627"
   version="1.2"
   id="svg29"
   sodipodi:docname="ex_corona_hilfe.svg"
   inkscape:version="0.92.4 5da689c313, 2019-01-14">
  <metadata
     id="metadata35">
    <rdf:RDF>
      <cc:Work
         rdf:about="">
        <dc:format>image/svg+xml</dc:format>
        <dc:type
           rdf:resource="http://purl.org/dc/dcmitype/StillImage" />
        <dc:title></dc:title>
      </cc:Work>
    </rdf:RDF>
  </metadata>
  <defs
     id="defs33" />
  <sodipodi:namedview
     pagecolor="#ffffff"
     bordercolor="#666666"
     borderopacity="1"
     objecttolerance="10"
     gridtolerance="10"
     guidetolerance="10"
     inkscape:pageopacity="0"
     inkscape:pageshadow="2"
     inkscape:window-width="1920"
     inkscape:window-height="1024"
     id="namedview31"
     showgrid="false"
     inkscape:pagecheckerboard="true"
     inkscape:zoom="1.7661455"
     inkscape:cx="20.677715"
     inkscape:cy="57.603311"
     inkscape:window-x="0"
     inkscape:window-y="28"
     inkscape:window-maximized="1"
     inkscape:current-layer="svg29" />
  <g
     id="surface754"
     style="fill:#000000;fill-opacity:1"
     transform="translate(-61.024565,-116.02231)">
    <path
       style="fill:#000000;fill-opacity:1;fill-rule:nonzero;stroke:none"
       d="m 76.636719,145.21484 h -15.1875 v -28.66015 h 14.546875 v 3.03906 H 64.804688 V 129.125 H 75.15625 v 3.01953 H 64.804688 v 10.03125 h 11.832031 z m 0,0"
       id="path2"
       inkscape:connector-curvature="0" />
    <path
       style="fill:#000000;fill-opacity:1;fill-rule:nonzero;stroke:none"
       d="m 94.089844,145.21484 h -2.730469 l -4.398437,-7.3164 c -0.132813,-0.21875 -0.277344,-0.53516 -0.4375,-0.94532 h -0.05469 c -0.08984,0.20313 -0.238281,0.51954 -0.453125,0.94532 l -4.527344,7.3164 H 78.742188 L 85.136719,135.60937 79.25,126.10938 h 2.742188 l 3.902343,6.71484 c 0.257813,0.44531 0.484375,0.88672 0.679688,1.33203 h 0.05469 c 0.285156,-0.58594 0.53125,-1.04688 0.746094,-1.38672 l 4.0625,-6.66015 h 2.570312 L 88,135.58203 Z m 0,0"
       id="path4"
       inkscape:connector-curvature="0" />
    <path
       style="fill:#000000;fill-opacity:1;fill-rule:nonzero;stroke:none"
       d="m 117.75,143.53516 c -2.11719,1.11718 -4.75391,1.67968 -7.91406,1.67968 -4.07422,0 -7.33985,-1.3125 -9.79297,-3.9375 -2.44922,-2.625 -3.675782,-6.0664 -3.675782,-10.33203 0,-4.58203 1.378906,-8.28906 4.136722,-11.10937 2.75781,-2.82813 6.2539,-4.23828 10.49218,-4.23828 2.71875,0 4.96875,0.39062 6.75391,1.17968 v 3.57422 c -2.05078,-1.14453 -4.31641,-1.71484 -6.79297,-1.71484 -3.29297,0 -5.96094,1.09766 -8.0039,3.29687 -2.04688,2.19922 -3.070318,5.13282 -3.070318,8.8125 0,3.48828 0.957028,6.26953 2.871098,8.34375 1.91015,2.07032 4.41797,3.10547 7.52343,3.10547 2.87891,0 5.36719,-0.64062 7.47266,-1.91797 z m 0,0"
       id="path6"
       inkscape:connector-curvature="0" />
    <path
       style="fill:#000000;fill-opacity:1;fill-rule:nonzero;stroke:none"
       d="m 130.19531,127.49609 c -2.00781,0 -3.64062,0.72266 -4.89062,2.17188 -1.25391,1.44531 -1.87891,3.34765 -1.87891,5.69922 0,2.35547 0.60938,4.25 1.83203,5.68359 1.22266,1.43359 2.8125,2.15234 4.77735,2.15234 2.09375,0 3.74609,-0.68359 4.95703,-2.05468 1.20703,-1.36719 1.80859,-3.27735 1.80859,-5.74219 0,-2.51953 -0.58594,-4.47266 -1.75781,-5.84766 -1.17188,-1.375 -2.78906,-2.0625 -4.84766,-2.0625 m -0.16015,17.71875 c -2.71094,0 -4.87891,-0.89453 -6.50782,-2.67578 -1.63281,-1.78515 -2.44531,-4.10937 -2.44531,-6.97265 0,-3.07032 0.82813,-5.52344 2.49219,-7.35157 1.66016,-1.82812 3.92187,-2.74218 6.78125,-2.74218 2.63672,0 4.76172,0.88672 6.375,2.66406 1.60937,1.77344 2.41797,4.09765 2.41797,6.96484 0,3.1211 -0.82813,5.58203 -2.48047,7.39453 -1.65235,1.8125 -3.86328,2.71875 -6.63281,2.71875"
       id="path8"
       inkscape:connector-curvature="0" />
    <path
       style="fill:#000000;fill-opacity:1;fill-rule:nonzero;stroke:none"
       d="m 145.14062,128.13281 v 6.92969 h 3.03907 c 0.5625,0 1.07812,-0.082 1.55468,-0.25391 0.47657,-0.16797 0.88672,-0.41015 1.23438,-0.72656 0.34766,-0.3125 0.61719,-0.69922 0.81641,-1.16016 0.19531,-0.45703 0.29296,-0.96875 0.29296,-1.53515 0,-1.02344 -0.33203,-1.82031 -0.99609,-2.39453 -0.66406,-0.57032 -1.62109,-0.85938 -2.875,-0.85938 z m 11.47657,17.08203 h -2.67188 l -3.20312,-5.35547 c -0.29297,-0.5 -0.57813,-0.92187 -0.85547,-1.27343 -0.27344,-0.35157 -0.5586,-0.63672 -0.84766,-0.85938 -0.28515,-0.22265 -0.59765,-0.38281 -0.92969,-0.48828 -0.33593,-0.0977 -0.71093,-0.15234 -1.1289,-0.15234 h -1.83985 v 8.1289 h -2.23828 v -19.10546 h 5.70703 c 0.83594,0 1.60547,0.10546 2.3125,0.3125 0.70704,0.20703 1.32422,0.52734 1.84375,0.95312 0.51954,0.42578 0.92969,0.95703 1.22266,1.59375 0.29297,0.63281 0.4375,1.37891 0.4375,2.23047 0,0.66406 -0.0977,1.27734 -0.30078,1.83203 -0.19922,0.55078 -0.48438,1.04687 -0.85156,1.48437 -0.3711,0.4336 -0.81641,0.80469 -1.33594,1.11329 -0.51953,0.30468 -1.10547,0.54296 -1.75781,0.71093 v 0.0547 c 0.32031,0.14063 0.60156,0.30469 0.83593,0.48438 0.23438,0.18359 0.46094,0.39843 0.67579,0.64843 0.21484,0.25 0.42578,0.53125 0.63281,0.84375 0.21094,0.31641 0.4414,0.6836 0.70312,1.10157 z m 0,0"
       id="path10"
       inkscape:connector-curvature="0" />
    <path
       style="fill:#000000;fill-opacity:1;fill-rule:nonzero;stroke:none"
       d="m 167.11719,127.49609 c -2.01172,0 -3.64453,0.72266 -4.89453,2.17188 -1.25782,1.44531 -1.88282,3.34765 -1.88282,5.69922 0,2.35547 0.60938,4.25 1.83594,5.68359 1.21875,1.43359 2.81641,2.15234 4.78125,2.15234 2.10156,0 3.75781,-0.68359 4.96484,-2.05468 1.21094,-1.36719 1.81641,-3.27735 1.81641,-5.74219 0,-2.51953 -0.58984,-4.47266 -1.76172,-5.84766 -1.17578,-1.375 -2.79297,-2.0625 -4.85937,-2.0625 m -0.16016,17.71875 c -2.71484,0 -4.88672,-0.89453 -6.51953,-2.67578 -1.63281,-1.78515 -2.44922,-4.10937 -2.44922,-6.97265 0,-3.07032 0.83203,-5.52344 2.49609,-7.35157 1.66407,-1.82812 3.92969,-2.74218 6.79297,-2.74218 2.64453,0 4.77344,0.88672 6.38672,2.66406 1.61328,1.77344 2.42578,4.09765 2.42578,6.96484 0,3.1211 -0.82812,5.58203 -2.48437,7.39453 -1.65625,1.8125 -3.8711,2.71875 -6.64844,2.71875"
       id="path12"
       inkscape:connector-curvature="0" />
    <path
       style="fill:#000000;fill-opacity:1;fill-rule:nonzero;stroke:none"
       d="m 195.26953,145.21484 h -2.74219 l -9.85156,-15.23047 c -0.24609,-0.3789 -0.45312,-0.78125 -0.60937,-1.19921 h -0.0781 c 0.0664,0.41015 0.10156,1.28515 0.10156,2.625 v 13.80468 h -2.24218 v -19.10546 h 2.91015 l 9.58203,14.98828 c 0.39844,0.62109 0.65625,1.04687 0.77344,1.27734 h 0.0547 c -0.0898,-0.55078 -0.13672,-1.48828 -0.13672,-2.80859 v -13.45703 h 2.23828 z m 0,0"
       id="path14"
       inkscape:connector-curvature="0" />
    <path
       style="fill:#000000;fill-opacity:1;fill-rule:nonzero;stroke:none"
       d="m 209.83203,137.84766 -2.99609,-8.14063 c -0.10157,-0.26562 -0.19532,-0.69141 -0.29688,-1.28125 h -0.0508 c -0.0898,0.54297 -0.19141,0.96875 -0.30469,1.28125 l -2.97265,8.14063 z m 5.23438,7.36718 h -2.47657 l -2.02734,-5.35547 h -8.09766 l -1.90625,5.35547 h -2.49218 l 7.32812,-19.10546 h 2.32031 z m 0,0"
       id="path16"
       inkscape:connector-curvature="0" />
    <path
       style="fill:#000000;fill-opacity:1;fill-rule:nonzero;stroke:none"
       d="m 138.83203,167.86328 h -2.59766 v -10.10547 h -11.46484 v 10.10547 h -2.59375 v -22.15625 h 2.59375 v 9.71875 h 11.46484 v -9.71875 h 2.59766 z m 0,0"
       id="path18"
       inkscape:connector-curvature="0" />
    <path
       style="fill:#000000;fill-opacity:1;fill-rule:nonzero;stroke:none"
       d="m 146.84375,153.09375 v 1.48047 h -1.44141 v 11.80469 h 1.44141 v 1.48437 h -4.61328 v -1.48437 h 1.4414 v -11.80469 h -1.4414 v -1.48047 z m 0,0"
       id="path20"
       inkscape:connector-curvature="0" />
    <path
       style="fill:#000000;fill-opacity:1;fill-rule:nonzero;stroke:none"
       d="m 156.96875,167.86328 h -7.67969 v -14.77344 h 1.73438 v 13.20703 h 5.94531 z m 0,0"
       id="path22"
       inkscape:connector-curvature="0" />
    <path
       style="fill:#000000;fill-opacity:1;fill-rule:nonzero;stroke:none"
       d="m 166.74609,154.65625 h -5.77734 v 5.10937 h 5.34375 v 1.55469 h -5.34375 v 6.54297 h -1.73438 v -14.76953 h 7.51172 z m 0,0"
       id="path24"
       inkscape:connector-curvature="0" />
    <path
       style="fill:#000000;fill-opacity:1;fill-rule:nonzero;stroke:none"
       d="m 177.39844,167.86328 h -7.84375 v -14.77344 h 7.51172 v 1.57032 h -5.77735 v 4.91015 h 5.34375 v 1.5586 h -5.34375 v 5.16796 h 6.10938 z m 0,0"
       id="path26"
       inkscape:connector-curvature="0" />
  </g>
</svg>
