<?xml version="1.0" encoding="UTF-8" standalone="no"?>
<!-- Created with Inkscape (http://www.inkscape.org/) -->

<svg
   xmlns:dc="http://purl.org/dc/elements/1.1/"
   xmlns:cc="http://creativecommons.org/ns#"
   xmlns:rdf="http://www.w3.org/1999/02/22-rdf-syntax-ns#"
   xmlns:svg="http://www.w3.org/2000/svg"
   xmlns="http://www.w3.org/2000/svg"
   xmlns:sodipodi="http://sodipodi.sourceforge.net/DTD/sodipodi-0.dtd"
   xmlns:inkscape="http://www.inkscape.org/namespaces/inkscape"
   version="1.1"
   id="svg2"
   xml:space="preserve"
   width="349.24759"
   height="69.686134"
   viewBox="0 0 349.24759 69.686135"
   sodipodi:docname="ex_corona_de_nl.svg"
   inkscape:version="0.92.4 5da689c313, 2019-01-14"><metadata
     id="metadata8"><rdf:RDF><cc:Work
         rdf:about=""><dc:format>image/svg+xml</dc:format><dc:type
           rdf:resource="http://purl.org/dc/dcmitype/StillImage" /><dc:title></dc:title></cc:Work></rdf:RDF></metadata><defs
     id="defs6"><clipPath
       clipPathUnits="userSpaceOnUse"
       id="clipPath22"><path
         d="M 0,283.46 H 283.46 V 0 H 0 Z"
         id="path20"
         inkscape:connector-curvature="0" /></clipPath></defs><sodipodi:namedview
     pagecolor="#ffffff"
     bordercolor="#666666"
     borderopacity="1"
     objecttolerance="10"
     gridtolerance="10"
     guidetolerance="10"
     inkscape:pageopacity="0"
     inkscape:pageshadow="2"
     inkscape:window-width="1920"
     inkscape:window-height="1024"
     id="namedview4"
     showgrid="false"
     inkscape:zoom="2.497707"
     inkscape:cx="141.58241"
     inkscape:cy="17.952653"
     inkscape:window-x="0"
     inkscape:window-y="28"
     inkscape:window-maximized="1"
     inkscape:current-layer="g18" /><g
     id="g10"
     inkscape:groupmode="layer"
     inkscape:label="ex_corona_deutschland"
     transform="matrix(1.3333333,0,0,-1.3333333,-16.238266,223.47199)"><g
       id="g12"
       transform="translate(27.3667,137.9883)"><path
         d="M 0,0 H -15.188 V 28.658 H -0.64 V 25.619 H -11.831 V 16.088 H -1.479 V 13.07 H -11.831 V 3.038 H 0 Z"
         style="fill:#1d1d1b;fill-opacity:1;fill-rule:nonzero;stroke:none"
         id="path14"
         inkscape:connector-curvature="0" /></g><g
       id="g16"><g
         id="g18"
         clip-path="url(#clipPath22)"><g
           id="g24"
           transform="translate(44.8188,137.9883)"><path
             d="m 0,0 h -2.731 l -4.396,7.314 c -0.134,0.222 -0.28,0.538 -0.44,0.946 H -7.621 C -7.709,8.057 -7.86,7.74 -8.073,7.314 L -12.603,0 h -2.745 l 6.395,9.605 -5.888,9.499 h 2.744 l 3.904,-6.714 c 0.257,-0.444 0.484,-0.888 0.679,-1.332 h 0.054 c 0.284,0.586 0.532,1.048 0.746,1.385 l 4.063,6.661 H -0.08 L -6.088,9.633 Z"
             style="fill:#1d1d1b;fill-opacity:1;fill-rule:nonzero;stroke:none"
             id="path26"
             inkscape:connector-curvature="0" /></g><g
           id="g28"
           transform="translate(68.48,139.667)"><path
             d="m 0,0 c -2.119,-1.118 -4.756,-1.679 -7.914,-1.679 -4.076,0 -7.34,1.313 -9.792,3.938 -2.451,2.624 -3.677,6.067 -3.677,10.331 0,4.583 1.38,8.287 4.137,11.111 2.758,2.825 6.255,4.236 10.492,4.236 2.717,0 4.969,-0.392 6.754,-1.178 v -3.577 c -2.052,1.145 -4.316,1.718 -6.794,1.718 -3.291,0 -5.959,-1.099 -8.004,-3.297 -2.045,-2.199 -3.068,-5.136 -3.068,-8.813 0,-3.491 0.956,-6.271 2.868,-8.345 1.912,-2.069 4.42,-3.106 7.524,-3.106 2.878,0 5.369,0.64 7.474,1.919 z"
             style="fill:#1d1d1b;fill-opacity:1;fill-rule:nonzero;stroke:none"
             id="path30"
             inkscape:connector-curvature="0" /></g><g
           id="g32"
           transform="translate(80.9238,155.707)"><path
             d="m 0,0 c -2.007,0 -3.638,-0.724 -4.89,-2.172 -1.252,-1.447 -1.879,-3.348 -1.879,-5.701 0,-2.355 0.611,-4.249 1.833,-5.683 1.221,-1.433 2.813,-2.152 4.776,-2.152 2.096,0 3.748,0.684 4.956,2.053 1.208,1.368 1.811,3.281 1.811,5.742 0,2.521 -0.586,4.473 -1.758,5.848 C 3.677,-0.688 2.06,0 0,0 m -0.16,-17.719 c -2.71,0 -4.879,0.893 -6.508,2.677 -1.63,1.785 -2.445,4.107 -2.445,6.969 0,3.073 0.83,5.524 2.491,7.354 1.661,1.828 3.922,2.743 6.782,2.743 2.637,0 4.762,-0.887 6.375,-2.664 1.611,-1.775 2.418,-4.098 2.418,-6.966 0,-3.12 -0.827,-5.583 -2.478,-7.396 -1.652,-1.811 -3.864,-2.717 -6.635,-2.717"
             style="fill:#1d1d1b;fill-opacity:1;fill-rule:nonzero;stroke:none"
             id="path34"
             inkscape:connector-curvature="0" /></g><g
           id="g36"
           transform="translate(95.8711,155.0684)"><path
             d="m 0,0 v -6.928 h 3.039 c 0.561,0 1.079,0.083 1.555,0.252 0.475,0.171 0.888,0.412 1.234,0.728 0.347,0.313 0.618,0.7 0.814,1.158 0.196,0.459 0.294,0.97 0.294,1.538 0,1.023 -0.331,1.819 -0.994,2.392 C 5.278,-0.287 4.32,0 3.065,0 Z m 11.474,-17.08 h -2.67 l -3.203,5.356 c -0.293,0.497 -0.578,0.92 -0.854,1.272 -0.275,0.351 -0.559,0.637 -0.847,0.859 -0.289,0.223 -0.601,0.385 -0.934,0.487 -0.334,0.101 -0.71,0.153 -1.127,0.153 H 0 V -17.08 H -2.238 V 2.024 H 3.467 C 4.302,2.024 5.075,1.92 5.781,1.712 6.489,1.504 7.103,1.186 7.623,0.76 8.145,0.333 8.552,-0.199 8.845,-0.833 c 0.294,-0.635 0.44,-1.379 0.44,-2.231 0,-0.666 -0.1,-1.279 -0.301,-1.832 C 8.785,-5.45 8.499,-5.946 8.131,-6.382 7.761,-6.817 7.316,-7.187 6.797,-7.494 6.276,-7.801 5.69,-8.038 5.041,-8.207 V -8.26 c 0.319,-0.143 0.598,-0.305 0.834,-0.486 0.236,-0.182 0.46,-0.398 0.674,-0.648 0.213,-0.249 0.425,-0.53 0.633,-0.845 0.21,-0.314 0.443,-0.682 0.701,-1.1 z"
             style="fill:#1d1d1b;fill-opacity:1;fill-rule:nonzero;stroke:none"
             id="path38"
             inkscape:connector-curvature="0" /></g><g
           id="g40"
           transform="translate(117.8481,155.707)"><path
             d="M 0,0 C -2.011,0 -3.644,-0.724 -4.898,-2.172 -6.153,-3.619 -6.78,-5.52 -6.78,-7.873 c 0,-2.355 0.611,-4.249 1.835,-5.683 1.223,-1.433 2.819,-2.152 4.784,-2.152 2.1,0 3.755,0.684 4.965,2.053 1.21,1.368 1.815,3.281 1.815,5.742 0,2.521 -0.587,4.473 -1.761,5.848 C 3.682,-0.688 2.063,0 0,0 m -0.161,-17.719 c -2.713,0 -4.886,0.893 -6.519,2.677 -1.633,1.785 -2.449,4.107 -2.449,6.969 0,3.073 0.833,5.524 2.496,7.354 1.664,1.828 3.928,2.743 6.793,2.743 2.642,0 4.77,-0.887 6.385,-2.664 1.616,-1.775 2.424,-4.098 2.424,-6.966 0,-3.12 -0.828,-5.583 -2.483,-7.396 -1.655,-1.811 -3.871,-2.717 -6.647,-2.717"
             style="fill:#1d1d1b;fill-opacity:1;fill-rule:nonzero;stroke:none"
             id="path42"
             inkscape:connector-curvature="0" /></g><g
           id="g44"
           transform="translate(146,137.9883)"><path
             d="m 0,0 h -2.744 l -9.849,15.228 c -0.248,0.382 -0.452,0.782 -0.613,1.199 h -0.079 c 0.071,-0.409 0.106,-1.283 0.106,-2.624 V 0 h -2.242 v 19.104 h 2.908 L -2.931,4.117 c 0.4,-0.622 0.658,-1.049 0.773,-1.279 h 0.054 c -0.089,0.55 -0.134,1.488 -0.134,2.81 V 19.104 H 0 Z"
             style="fill:#1d1d1b;fill-opacity:1;fill-rule:nonzero;stroke:none"
             id="path46"
             inkscape:connector-curvature="0" /></g><g
           id="g48"
           transform="translate(160.5615,145.3555)"><path
             d="M 0,0 -2.998,8.141 C -3.096,8.407 -3.192,8.833 -3.291,9.42 H -3.344 C -3.433,8.877 -3.535,8.451 -3.65,8.141 L -6.621,0 Z M 5.236,-7.367 H 2.758 l -2.026,5.356 h -8.099 l -1.905,-5.356 h -2.492 l 7.328,19.104 h 2.318 z"
             style="fill:#1d1d1b;fill-opacity:1;fill-rule:nonzero;stroke:none"
             id="path50"
             inkscape:connector-curvature="0" /></g><g
           id="g52"
           transform="translate(89.5605,115.3398)"><path
             d="M 0,0 H -2.595 V 10.104 H -14.06 V 0 h -2.595 v 22.156 h 2.595 v -9.719 h 11.465 v 9.719 H 0 Z"
             style="fill:#1d1d1b;fill-opacity:1;fill-rule:nonzero;stroke:none"
             id="path54"
             inkscape:connector-curvature="0" /></g><g
           id="g56"
           transform="translate(97.5747,130.1104)"><path
             d="M 0,0 V -1.483 H -1.442 V -13.288 H 0 v -1.483 h -4.615 v 1.483 h 1.442 V -1.483 H -4.615 V 0 Z"
             style="fill:#1d1d1b;fill-opacity:1;fill-rule:nonzero;stroke:none"
             id="path58"
             inkscape:connector-curvature="0" /></g><g
           id="g60"
           transform="translate(107.6958,115.3398)"><path
             d="m 0,0 h -7.677 v 14.771 h 1.733 V 1.565 H 0 Z"
             style="fill:#1d1d1b;fill-opacity:1;fill-rule:nonzero;stroke:none"
             id="path62"
             inkscape:connector-curvature="0" /></g><g
           id="g64"
           transform="translate(117.4775,128.5439)"><path
             d="m 0,0 h -5.779 v -5.107 h 5.345 v -1.557 h -5.345 v -6.54 H -7.512 V 1.566 H 0 Z"
             style="fill:#1d1d1b;fill-opacity:1;fill-rule:nonzero;stroke:none"
             id="path66"
             inkscape:connector-curvature="0" /></g><g
           id="g68"
           transform="translate(128.1255,115.3398)"><path
             d="m 0,0 h -7.841 v 14.771 h 7.51 V 13.204 H -6.108 V 8.292 h 5.345 V 6.735 H -6.108 V 1.565 H 0 Z"
             style="fill:#1d1d1b;fill-opacity:1;fill-rule:nonzero;stroke:none"
             id="path70"
             inkscape:connector-curvature="0" /></g><g
           id="g72"
           transform="translate(141.6411,128.2432)"><path
             d="m 0,0 v -11.035 h 2.092 c 1.836,0 3.266,0.492 4.287,1.474 1.022,0.984 1.534,2.377 1.534,4.18 C 7.913,-1.793 6.004,0 2.19,0 Z M -1.644,-12.52 V 1.484 h 3.873 c 4.936,0 7.402,-2.275 7.402,-6.826 0,-2.161 -0.685,-3.897 -2.054,-5.209 -1.371,-1.312 -3.205,-1.969 -5.504,-1.969 z"
             style="fill:#1d1d1b;fill-opacity:1;fill-rule:nonzero;stroke:none"
             id="path74"
             inkscape:connector-curvature="0" /></g><g
           id="g76"
           transform="translate(161.4482,115.7236)"><path
             d="m 0,0 h -7.422 v 14.004 h 7.11 V 12.52 H -5.781 V 7.861 h 5.058 V 6.387 H -5.781 V 1.484 H 0 Z"
             style="fill:#1d1d1b;fill-opacity:1;fill-rule:nonzero;stroke:none"
             id="path78"
             inkscape:connector-curvature="0" /></g><g
           id="g80"
           transform="translate(174.3877,121.3877)"><path
             d="m 0,0 c 0,-3.932 -1.773,-5.898 -5.322,-5.898 -3.399,0 -5.098,1.891 -5.098,5.673 V 8.34 h 1.641 v -8.457 c 0,-2.871 1.211,-4.307 3.633,-4.307 2.337,0 3.505,1.387 3.505,4.16 V 8.34 H 0 Z"
             style="fill:#1d1d1b;fill-opacity:1;fill-rule:nonzero;stroke:none"
             id="path82"
             inkscape:connector-curvature="0" /></g><g
           id="g84"
           transform="translate(186.165,128.2432)"><path
             d="M 0,0 H -4.043 V -12.52 H -5.684 V 0 H -9.717 V 1.484 H 0 Z"
             style="fill:#1d1d1b;fill-opacity:1;fill-rule:nonzero;stroke:none"
             id="path86"
             inkscape:connector-curvature="0" /></g><g
           id="g88"
           transform="translate(187.708,116.29)"><path
             d="M 0,0 V 1.934 C 0.223,1.738 0.486,1.562 0.797,1.406 1.105,1.25 1.432,1.119 1.773,1.012 2.115,0.904 2.459,0.82 2.803,0.762 3.148,0.703 3.467,0.674 3.76,0.674 4.77,0.674 5.523,0.861 6.021,1.236 6.52,1.61 6.768,2.148 6.768,2.852 6.768,3.229 6.686,3.559 6.52,3.838 6.354,4.118 6.123,4.374 5.83,4.605 5.537,4.836 5.191,5.058 4.791,5.27 4.391,5.48 3.959,5.703 3.496,5.937 3.008,6.186 2.553,6.436 2.129,6.689 1.707,6.943 1.338,7.224 1.025,7.529 0.713,7.836 0.467,8.183 0.289,8.57 0.109,8.957 0.02,9.411 0.02,9.932 c 0,0.638 0.14,1.193 0.419,1.666 0.282,0.471 0.649,0.86 1.104,1.166 0.457,0.306 0.975,0.534 1.559,0.683 0.582,0.151 1.175,0.225 1.781,0.225 1.381,0 2.387,-0.166 3.017,-0.498 v -1.846 c -0.826,0.573 -1.886,0.86 -3.183,0.86 -0.358,0 -0.715,-0.038 -1.074,-0.112 C 3.285,12.001 2.967,11.879 2.686,11.709 2.406,11.54 2.178,11.322 2.002,11.055 1.826,10.788 1.738,10.463 1.738,10.078 1.738,9.721 1.805,9.411 1.939,9.15 2.072,8.891 2.27,8.652 2.529,8.438 2.791,8.223 3.107,8.015 3.482,7.812 3.855,7.611 4.287,7.39 4.775,7.148 5.277,6.901 5.752,6.641 6.201,6.367 6.65,6.094 7.045,5.791 7.383,5.459 7.723,5.127 7.99,4.76 8.189,4.355 8.387,3.952 8.486,3.49 8.486,2.969 8.486,2.279 8.352,1.695 8.082,1.217 7.811,0.738 7.447,0.349 6.988,0.049 6.529,-0.25 6,-0.467 5.4,-0.6 4.803,-0.733 4.17,-0.801 3.506,-0.801 c -0.221,0 -0.494,0.019 -0.82,0.055 C 2.361,-0.711 2.029,-0.658 1.689,-0.59 1.352,-0.521 1.031,-0.437 0.729,-0.336 0.426,-0.235 0.184,-0.123 0,0"
             style="fill:#1d1d1b;fill-opacity:1;fill-rule:nonzero;stroke:none"
             id="path90"
             inkscape:connector-curvature="0" /></g><g
           id="g92"
           transform="translate(208.5186,116.3096)"><path
             d="m 0,0 c -1.035,-0.547 -2.324,-0.82 -3.867,-0.82 -1.992,0 -3.586,0.641 -4.785,1.924 -1.198,1.283 -1.797,2.965 -1.797,5.048 0,2.241 0.674,4.05 2.021,5.43 1.348,1.381 3.057,2.07 5.127,2.07 1.328,0 2.43,-0.191 3.301,-0.576 v -1.748 c -1.002,0.561 -2.109,0.84 -3.32,0.84 -1.608,0 -2.912,-0.537 -3.91,-1.611 -1,-1.075 -1.5,-2.51 -1.5,-4.307 0,-1.705 0.466,-3.064 1.402,-4.076 0.933,-1.013 2.16,-1.52 3.676,-1.52 1.406,0 2.625,0.313 3.652,0.938 z"
             style="fill:#1d1d1b;fill-opacity:1;fill-rule:nonzero;stroke:none"
             id="path94"
             inkscape:connector-curvature="0" /></g><g
           id="g96"
           transform="translate(221.8975,115.7236)"><path
             d="M 0,0 H -1.641 V 6.387 H -8.887 V 0 h -1.64 v 14.004 h 1.64 V 7.861 h 7.246 v 6.143 H 0 Z"
             style="fill:#1d1d1b;fill-opacity:1;fill-rule:nonzero;stroke:none"
             id="path98"
             inkscape:connector-curvature="0" /></g><g
           id="g100"
           transform="translate(232.835,115.7236)"><path
             d="m 0,0 h -7.266 v 14.004 h 1.641 V 1.484 H 0 Z"
             style="fill:#1d1d1b;fill-opacity:1;fill-rule:nonzero;stroke:none"
             id="path102"
             inkscape:connector-curvature="0" /></g><g
           id="g104"
           transform="translate(241.9854,121.124)"><path
             d="M 0,0 -2.197,5.967 C -2.268,6.162 -2.34,6.475 -2.412,6.904 H -2.451 C -2.516,6.508 -2.59,6.195 -2.676,5.967 L -4.854,0 Z M 3.838,-5.4 H 2.021 L 0.537,-1.475 H -5.4 L -6.797,-5.4 h -1.826 l 5.371,14.004 h 1.699 z"
             style="fill:#1d1d1b;fill-opacity:1;fill-rule:nonzero;stroke:none"
             id="path106"
             inkscape:connector-curvature="0" /></g><g
           id="g108"
           transform="translate(259.1729,115.7236)"><path
             d="m 0,0 h -2.012 l -7.207,11.162 c -0.181,0.28 -0.332,0.573 -0.449,0.879 h -0.059 c 0.053,-0.299 0.079,-0.94 0.079,-1.924 V 0 h -1.641 V 14.004 H -9.16 L -2.148,3.018 C -1.855,2.563 -1.666,2.25 -1.582,2.08 h 0.039 c -0.064,0.404 -0.098,1.091 -0.098,2.061 v 9.863 H 0 Z"
             style="fill:#1d1d1b;fill-opacity:1;fill-rule:nonzero;stroke:none"
             id="path110"
             inkscape:connector-curvature="0" /></g><g
           id="g112"
           transform="translate(264.4854,128.2432)"><path
             d="m 0,0 v -11.035 h 2.09 c 1.836,0 3.265,0.492 4.287,1.474 C 7.4,-8.577 7.91,-7.184 7.91,-5.381 7.91,-1.793 6.004,0 2.188,0 Z M -1.641,-12.52 V 1.484 h 3.868 c 4.935,0 7.402,-2.275 7.402,-6.826 0,-2.161 -0.686,-3.897 -2.055,-5.209 C 6.203,-11.863 4.369,-12.52 2.07,-12.52 Z"
             style="fill:#1d1d1b;fill-opacity:1;fill-rule:nonzero;stroke:none"
             id="path114"
             inkscape:connector-curvature="0" /></g></g></g></g></svg>